<svg width="20" height="38" viewBox="0 0 20 38" fill="none" xmlns="http://www.w3.org/2000/svg">
<path d="M18.7781 13.3793C17.9969 12.5982 16.9379 12.1588 15.8332 12.1574H13.9563V3.09492C13.9555 2.27439 13.6293 1.48766 13.0491 0.907419C12.4689 0.327177 11.6823 0.000827459 10.8617 0L9.13828 0C8.31788 0.000827114 7.53132 0.327069 6.95117 0.907143C6.37102 1.48722 6.04468 2.27374 6.04375 3.09414V12.1566H4.16875C3.06359 12.1575 2.00391 12.5968 1.22233 13.3781C0.440747 14.1595 0.00113797 15.2191 0 16.3242L0 31.259C0.000992067 32.0649 0.23575 32.8533 0.675816 33.5284C1.11588 34.2036 1.74236 34.7366 2.4793 35.0629C2.33552 35.2492 2.2428 35.4698 2.21028 35.7029C2.17777 35.936 2.20658 36.1736 2.29388 36.3922C2.38118 36.6107 2.52395 36.8028 2.70811 36.9493C2.89227 37.0959 3.11145 37.1919 3.34404 37.2279C3.57663 37.264 3.81459 37.2387 4.03445 37.1547C4.25431 37.0707 4.44847 36.9308 4.59779 36.7489C4.7471 36.567 4.8464 36.3492 4.88591 36.1172C4.92541 35.8852 4.90374 35.6469 4.82305 35.4258H15.1785C15.0977 35.647 15.0759 35.8854 15.1153 36.1176C15.1547 36.3497 15.254 36.5676 15.4034 36.7497C15.5527 36.9317 15.747 37.0717 15.9669 37.1558C16.1869 37.2399 16.425 37.2652 16.6577 37.2291C16.8904 37.1931 17.1097 37.097 17.294 36.9503C17.4782 36.8037 17.621 36.6115 17.7083 36.3928C17.7956 36.1741 17.8243 35.9364 17.7917 35.7032C17.7591 35.4699 17.6662 35.2493 17.5223 35.0629C18.2589 34.7364 18.8851 34.2033 19.3248 33.5281C19.7646 32.853 19.9991 32.0647 20 31.259V16.3242C19.9988 15.2195 19.5593 14.1604 18.7781 13.3793ZM9.13828 1.5625H10.8617C11.2678 1.56291 11.6572 1.7244 11.9444 2.01154C12.2316 2.29868 12.3932 2.68802 12.3938 3.09414V12.1566H7.60625V3.09414C7.60677 2.68802 7.76836 2.29868 8.05557 2.01154C8.34278 1.7244 8.73216 1.56291 9.13828 1.5625ZM18.3332 31.259C18.3332 31.922 18.0698 32.5579 17.601 33.0268C17.1321 33.4956 16.4962 33.759 15.8332 33.759H4.1668C3.50376 33.759 2.86787 33.4956 2.39903 33.0268C1.93019 32.5579 1.6668 31.922 1.6668 31.259V16.3242C1.6668 15.6612 1.93019 15.0253 2.39903 14.5565C2.86787 14.0876 3.50376 13.8242 4.1668 13.8242H15.8332C16.4962 13.8242 17.1321 14.0876 17.601 14.5565C18.0698 15.0253 18.3332 15.6612 18.3332 16.3242V31.259Z" fill="#8BA5D8"/>
</svg>
